# xmcd
#
# Track frame offsets:
#  150
#  22168
#  53228
#  100570
#  121798
#  145073
#  162033
#  185123
#  208198
#  228738
#  249493
#  267018
#  286648
#
# Disc length: 4092 seconds
#
# Revision: 1
# Processed by: cddbd v1.5.2PL0 Copyright (c) Steve Scherf et al.
# Submitted via: Collectorz.com_Music_Collector 6.10
#
DISCID=b30ffa0d
DTITLE=Swing Out Sister - The Ultimate Collection [CD2)
DYEAR=2003
DGENRE=Rock - Pop
TTITLE0=La La (Means I Love You)
TTITLE1=Better Make It Better
TTITLE2=Making The Right Move
TTITLE3=Don't Let Yourself Down
TTITLE4=Mama Didn't Raise A Fool
TTITLE5=Somewhere In The World
TTITLE6=Here And Now
TTITLE7=Stoned Soul Picnic
TTITLE8=You Already Know
TTITLE9=Now You're Not Here
TTITLE10=Through The Sky
TTITLE11=Where Do I Go
TTITLE12=Somewhere Deep In The Night
EXTD=
EXTT0=
EXTT1=
EXTT2=
EXTT3=
EXTT4=
EXTT5=
EXTT6=
EXTT7=
EXTT8=
EXTT9=
EXTT10=
EXTT11=
EXTT12=
PLAYORDER=
